<svg xmlns="http://www.w3.org/2000/svg" viewBox="0 0 167 167">
<g fill="black">
<path d="M115,102 L105,114 L96,119 L91,120 L104,122 L110,125 L103,130 L92,133 L105,136 L113,140 L120,146 L114,129 L116,128 L120,130 L130,139 L126,128 L127,107 L122,115 L114,122 L113,111 Z"/>
<path d="M51,102 L53,112 L52,122 L44,115 L39,107 L40,127 L36,138 L44,131 L50,128 L51,133 L46,146 L58,137 L74,133 L66,131 L56,125 L65,121 L75,120 L68,118 L60,113 Z"/>
<path d="M78,59 L69,63 L61,72 L59,77 L59,90 L63,98 L69,104 L79,108 L88,108 L94,106 L103,98 L106,90 L106,85 L101,80 L85,80 L82,83 L82,87 L85,90 L90,90 L91,92 L87,95 L77,94 L72,89 L71,81 L72,78 L78,72 L85,71 L95,76 L101,72 L101,67 L96,62 L88,59 Z"/>
<path d="M120,48 L130,65 L124,65 L111,58 L118,68 L121,79 L121,87 L126,76 L131,70 L132,71 L133,90 L142,76 L154,67 L136,67 L135,66 L140,61 L150,55 L136,55 L124,51 Z"/>
<path d="M47,48 L40,52 L30,55 L16,55 L21,57 L31,66 L27,68 L12,67 L18,70 L26,78 L33,90 L33,76 L35,71 L41,77 L46,87 L46,75 L50,65 L55,58 L45,64 L39,66 L36,65 Z"/>
<path d="M77,10 L72,25 L61,38 L71,34 L80,33 L81,34 L78,39 L68,49 L76,46 L90,46 L98,49 L90,41 L86,34 L96,34 L105,38 L92,21 L90,11 L86,24 L83,28 L79,21 Z"/>
</g></svg>